<svg xmlns="http://www.w3.org/2000/svg" xmlns:xlink="http://www.w3.org/1999/xlink" width="487.545" height="109" viewBox="0 0 487.545 109">
  <defs>
    <filter id="กลุ่มหลักสูตรศาสตร์และศิลป์ดิจิทัล" x="71.545" y="0" width="416" height="73" filterUnits="userSpaceOnUse">
      <feOffset dy="7" input="SourceAlpha"/>
      <feGaussianBlur stdDeviation="3.5" result="blur"/>
      <feFlood flood-opacity="0.161"/>
      <feComposite operator="in" in2="blur"/>
      <feComposite in="SourceGraphic"/>
    </filter>
    <filter id="มหาวิทยาลัยเทคโนโลยีสุรนารี" x="71.545" y="43" width="312" height="66" filterUnits="userSpaceOnUse">
      <feOffset dy="7" input="SourceAlpha"/>
      <feGaussianBlur stdDeviation="3.5" result="blur-2"/>
      <feFlood flood-opacity="0.161"/>
      <feComposite operator="in" in2="blur-2"/>
      <feComposite in="SourceGraphic"/>
    </filter>
    <filter id="Path_277" x="10.732" y="10" width="53.118" height="61.121" filterUnits="userSpaceOnUse">
      <feOffset dy="7" input="SourceAlpha"/>
      <feGaussianBlur stdDeviation="3.5" result="blur-3"/>
      <feFlood flood-opacity="0.161"/>
      <feComposite operator="in" in2="blur-3"/>
      <feComposite in="SourceGraphic"/>
    </filter>
    <filter id="Union_3" x="5.723" y="51.311" width="62.655" height="41.701" filterUnits="userSpaceOnUse">
      <feOffset dy="7" input="SourceAlpha"/>
      <feGaussianBlur stdDeviation="3.5" result="blur-4"/>
      <feFlood flood-opacity="0.161"/>
      <feComposite operator="in" in2="blur-4"/>
      <feComposite in="SourceGraphic"/>
    </filter>
    <filter id="Union_5" x="0" y="64.426" width="73.745" height="33.85" filterUnits="userSpaceOnUse">
      <feOffset dy="7" input="SourceAlpha"/>
      <feGaussianBlur stdDeviation="3.5" result="blur-5"/>
      <feFlood flood-opacity="0.161"/>
      <feComposite operator="in" in2="blur-5"/>
      <feComposite in="SourceGraphic"/>
    </filter>
  </defs>
  <g id="Group_173" data-name="Group 173" transform="translate(368.045 497.5)">
    <g transform="matrix(1, 0, 0, 1, -368.05, -497.5)" filter="url(#กลุ่มหลักสูตรศาสตร์และศิลป์ดิจิทัล)">
      <text id="กลุ่มหลักสูตรศาสตร์และศิลป์ดิจิทัล-2" data-name="กลุ่มหลักสูตรศาสตร์และศิลป์ดิจิทัล" transform="translate(82.05 3.5)" fill="#fff" font-size="40" font-family="SUTRegular, SUT"><tspan x="0" y="31">กลุ่มหลักสูตรศาสตร์และศิลป์ดิจิทัล</tspan></text>
    </g>
    <g transform="matrix(1, 0, 0, 1, -368.05, -497.5)" filter="url(#มหาวิทยาลัยเทคโนโลยีสุรนารี)">
      <text id="มหาวิทยาลัยเทคโนโลยีสุรนารี-2" data-name="มหาวิทยาลัยเทคโนโลยีสุรนารี" transform="translate(82.05 46.5)" fill="#fff" font-size="35" font-family="SUTLight, SUT"><tspan x="0" y="27">มหาวิทยาลัยเทคโนโลยีสุรนารี</tspan></text>
    </g>
    <g id="Group_172" data-name="Group 172" transform="translate(-1290.468 -402.995)">
      <g transform="matrix(1, 0, 0, 1, 922.42, -94.51)" filter="url(#Path_277)">
        <path id="Path_277-2" data-name="Path 277" d="M945.669-47.589l1.219-.008-.974,2.667s1.194.108,1.212.077c1.767-4.85,3.222-10.248,3.222-10.248l1.04,0a18.878,18.878,0,0,1-.619,2.365l1.15.01a100.173,100.173,0,0,0,3.106-17.73,5.28,5.28,0,0,0,.716.028s-.107,1.447-.3,2.8c0,0,1.207.026,1.207,0,.53-4.6.562-8.372.562-8.372l.333,0a83.178,83.178,0,0,0,.6,8.367c.025.034,1.212,0,1.212,0-.176-1.358-.3-2.8-.3-2.8a5.53,5.53,0,0,0,.7-.035A102.766,102.766,0,0,0,963-52.772l1.187-.021a18.058,18.058,0,0,1-.669-2.357l1.066,0s1.481,5.379,3.282,10.212c.021.031,1.208-.082,1.208-.082l-.981-2.66,1.216,0L972.286-41l1.292-.038a67.427,67.427,0,0,1-4.887-11.878l-1.154,0,.775,2.268a7.726,7.726,0,0,1-1.161-.044c-1.52-4.411-2.759-9.972-2.759-9.972l-1.09,0,.572,2.461-1.011.035A101.623,101.623,0,0,1,960.7-72.9l-1.11-.01.1,1.52a6.375,6.375,0,0,1-.759.005c-.26-2.416-.274-9.618-.274-9.618L957.5-81l.008,2.676-.3,0-.011-2.675h-1.156s.062,7.2-.172,9.619a6.523,6.523,0,0,1-.784,0l.11-1.519-1.133.02a98.528,98.528,0,0,1-2.034,14.757l-1-.025.554-2.47-1.11.006s-1.192,5.578-2.677,10a7.819,7.819,0,0,1-1.146.048l.749-2.273-1.153.006a70.212,70.212,0,0,1-4.775,11.921l1.283.023ZM968.62-49.6l.277.861-1.089-.038-.255-.822Zm-4.543-7.515.251.862-1.094-.038-.231-.82Zm-13.233.05,1.042,0-.234.82-1.073.052Zm-4.525,7.551,1.1-.006-.249.826-1.119.049Z" transform="translate(-920.23 94.51)" fill="#fff"/>
      </g>
      <path id="Union_4" data-name="Union 4" d="M0,25.073C-.01,20.9.107,21.755.107,21.755H1.9s-.006-1.226-.009-1.619.06-.6.7-.6c.621-.005,4.7-.02,4.7-.02h0c0-.669-.009-1.635-.011-1.964,0-.518.917-2.273,2.35-2.273,0,0,.231-3.31.287-3.783S9.8,10.056,9.8,9.358a6.38,6.38,0,0,1,.563-2.024,11.485,11.485,0,0,0,.118-2.618,1.706,1.706,0,0,1,.62-1.458c.305-.118.764-.409.761-.7s-.527-.4-.528-1.214S11.555.009,12.263,0c.676,0,.923.882.923,1.279s-.171.881-.171,1.092c0,.247.529.348,1.112.348a.931.931,0,0,1,1.047.773c.063.451.352.514.59.909a1.535,1.535,0,0,1-.229,1.489,8.721,8.721,0,0,0-.37,3.184c-.021.844.03.842-.672.841h-.153c-.182,0-.466,0-.462.455,0,.49.06,4.719.06,4.719l1.186.169c1.423-.008,2.363,1.741,2.367,2.256,0,.328,0,1.3,0,1.968l0,0s4.055-.019,4.7-.019.694.189.694.585.005,1.613.005,1.613l1.795-.005s.113-.851.129,3.321-5.184,6.047-6.229,6.049-5.694.025-5.694.025l0-.977s4.829-.016,5.692-.021,5.194-2.028,5.185-5.227c-.005-1.2-.008-1.794-.011-2.054h-.845s0,.874.01,1.784c0,.941-1.6,4.543-5.038,4.551l-5.046.027a1.611,1.611,0,0,1,.278-1.16c.037-.032-.033-1.578-.009-2.5A7.387,7.387,0,0,1,16,20.186l.039-.019-.039,0-.015-2.83-7.19.028.008,2.827H8.766l.039.018a7.38,7.38,0,0,1,2.908,5.269c.05.917-.01,2.47.014,2.5a1.568,1.568,0,0,1,.294,1.152s-1.615.008-5.049.019c-3.415.015-5.056-3.566-5.063-4.516,0-.908-.005-1.777-.005-1.777l-.833,0c0,.256,0,.85,0,2.055C1.091,28.114,5.418,30.1,6.308,30.1c.85,0,5.673-.019,5.673-.019v.975s-4.641.016-5.668.026C5.246,31.08.02,29.246,0,25.073Zm3.9,1.537s.46,1.567,3.319,1.629c.685,0,3.117-.013,3.117-.013L8.707,26.563Zm10.621,1.6s2.426,0,3.143-.015c2.824-.085,3.3-1.653,3.3-1.653l-4.817-.014Zm-7.158-4.2,3.45,3.4s-.008-2.391-.008-2.439c-.734-4.06-3.453-4.336-3.453-4.336Zm6.684.952c-.027.039.005,2.429.005,2.429l3.415-3.418-.021-3.384S14.729,20.89,14.047,24.959ZM2.836,23.965s.005.336.008.79a.85.85,0,0,0,.744.885c.412-.006,4.066-.019,4.066-.019L5.981,23.949Zm16-.065-1.666,1.683,4.075-.017a.86.86,0,0,0,.743-.881v-.792ZM2.732,22.565a.628.628,0,0,0,.679.7l1.808-.008L2.824,20.832S2.73,22.217,2.732,22.565ZM19.6,23.2s1.287-.005,1.812-.012a.647.647,0,0,0,.691-.7c0-.347-.117-1.73-.117-1.73ZM6.423,23.069l-.009-2.62-2.891-.034ZM18.371,20.4l.008,2.619,2.905-2.675Zm-8.319-4.322a.2.2,0,0,0,.181.186l4.7-.016a.208.208,0,0,0,.195-.189.193.193,0,0,0-.2-.166l-4.694.021h0A.177.177,0,0,0,10.052,16.082Zm.575-4.232c-.291.06-.286.884-.353,1.1-.048.247.008,1.693-.04,2.271l.684-.049a5.091,5.091,0,0,0-.121-1.525c-.158-.678.09-1.8-.148-1.8Zm.162,9.8-.014-3.483L12.224,21.4l-.043,3.836C11.818,22.467,10.789,21.65,10.789,21.65Zm1.79-.249,1.437-3.248.012,3.486s-1.047.823-1.366,3.6Z" transform="translate(946.699 -60.238)" fill="#fff"/>
      <g transform="matrix(1, 0, 0, 1, 922.42, -94.51)" filter="url(#Union_3)">
        <path id="Union_3-2" data-name="Union 3" d="M21.131,13.546l1.407-1.555,2.077,1.634.212,6.789L23.08,19.2l-1.922,1.5Zm-2.487,5.673L16.92,20.443l.168-6.785L19.151,12l1.4,1.547.027,7.15Zm-3.89-.258L13.1,20.03l.493-6.6,1.91-1.5,1.045,1.73-.129,6.606Zm10.4-5.337L26.2,11.884l1.908,1.484.552,6.605-1.647-1.061-1.657,1.313ZM11.182,18.291,9.44,18.56l1.192-5.748,1.905-1.132.623,1.641-.482,6.443Zm17.343-5.033.623-1.643,1.916,1.115,1.242,5.738-1.736-.256-1.482,1.482ZM7.764,17.271,6.3,17.276,8.1,12.12l2.089-1.058L10.2,12.74,9.015,18.3Zm23.742-4.623,0-1.669,2.1,1.042,1.83,5.139-1.461.006L32.729,18.2ZM5.243,15.715l-1.317-.179,2.792-4.972,1.633-.433.177.773-.679.965L6.025,16.65ZM33.85,11.763l-.708-.957.162-.776,1.677.416L37.771,15.4l-1.308.19-.785.948ZM3.319,13.526l-1.568-.6L5.388,8.831l1.743-.01L4.1,14.226Zm31.2-4.809,1.754-.009,3.684,4.06-1.56.621-.8.7ZM1.659,11.023.535,10.59,4.6,7.1l1.49.331L2.179,11.723ZM35.574,7.312l1.479-.345,4.109,3.459-1.134.445-.526.7ZM0,7.911,4.319,5.52l1.059.615-.954.434-3.391,2.8ZM37.205,6.438l-.948-.423L37.3,5.383l4.355,2.359L40.621,9.21ZM.226,5.018,4.159,3.784,5.2,4.569l-.962.249L.863,6.508Zm37.158-.333-.962-.244,1.05-.793,3.911,1.2-.61,1.216.01.278ZM1,2.578l3.4-.605.8,1.109L4.055,2.919l-2.6.969Zm36.545.206-1.134.168.773-1.11,3.4.582-.419,1.308ZM4.923,1.437l-2.079.1L3.007.319,4.92.129l.875,1.833ZM36.675,0,38.6.177l.171,1.216-2.086-.088-.887.542Z" transform="translate(16.22 54.81)" fill="#fff"/>
      </g>
      <g transform="matrix(1, 0, 0, 1, 922.42, -94.51)" filter="url(#Union_5)">
        <path id="Union_5-2" data-name="Union 5" d="M26.212,12.842l.024-1.935c.006-.367-.132-.552-.406-.556a.65.65,0,0,0-.469.236.681.681,0,0,0-.232.466l-.02,1.778-.587-.008.035-2.479a.5.5,0,0,0-.214-.448L25,9.9a.516.516,0,0,1,.113.163.814.814,0,0,1,.027.256v.057a.836.836,0,0,1,.809-.5.773.773,0,0,1,.875.881L26.8,12.85ZM27.317,10.8a.8.8,0,0,1,.289-.678,1.333,1.333,0,0,1,.831-.268,1.4,1.4,0,0,1,.8.193.8.8,0,0,1,.382.691l.055,2.048-.579.015-.059-2.025c-.007-.322-.2-.479-.586-.468s-.557.177-.546.5l.013.445a.869.869,0,0,1,.148-.184.31.31,0,0,1,.224-.073h.431l.014.483-.463,0a.312.312,0,0,0-.233.134.392.392,0,0,0-.108.262l.03.96-.586.016Zm-4.178,1.961.13-2.922.581.027-.107,2.469.333.016-.23.443Zm7.082-3.669c0-.088-.094-.186-.276-.3a.29.29,0,0,1-.137-.2.467.467,0,0,1,.287-.42,1.193,1.193,0,0,1,.528-.157,1.946,1.946,0,0,1,.444.021,1.14,1.14,0,0,1,.391.136l.038.571a.967.967,0,0,0-.742-.3.793.793,0,0,0-.248.045.1.1,0,0,0-.081.1c0,.03.06.078.182.151A.337.337,0,0,1,30.8,9l.2,3.252.34-.023-.185.466-.708.043ZM21.3,12.672a1.237,1.237,0,0,1-.9-.394.8.8,0,0,1-.175-.6l.019-.2a.6.6,0,0,1,.159-.364.528.528,0,0,1,.36-.171.693.693,0,0,1-.328-.2.474.474,0,0,1-.1-.364.663.663,0,0,1,.288-.512.89.89,0,0,1,.6-.146l.221.015.214.473-.348-.029c-.244-.019-.37.063-.388.245a.216.216,0,0,0,.122.232.691.691,0,0,0,.167.06.837.837,0,0,0,.185.026l.346.012-.041.473-.334-.026a.6.6,0,0,0-.376.069.306.306,0,0,0-.155.254l-.011.173c-.026.322.149.494.52.526s.585-.116.608-.433l.158-2,.585.046-.161,2.031a.83.83,0,0,1-.376.644,1.243,1.243,0,0,1-.68.171Q21.383,12.678,21.3,12.672Zm10.345-.749-.216-2.173.583-.061.2,2.042a.424.424,0,0,0,.528.424.672.672,0,0,0,.222-.064.635.635,0,0,0,.191-.13.485.485,0,0,0,.118-.189.452.452,0,0,0,.031-.221l-.195-1.967.585-.054.233,2.389a1.213,1.213,0,0,0,.067.311c.027.036.051.075.077.106a.309.309,0,0,0,.093.083l-.671.065a.57.57,0,0,1-.123-.295.96.96,0,0,1-.474.354,1.193,1.193,0,0,1-.282.057,1.791,1.791,0,0,1-.179.009A.7.7,0,0,1,31.642,11.922Zm-12.618.5.194-1.465a.968.968,0,0,1-.254.079l-.075.01a1.32,1.32,0,0,1-.133.011l-.061,0a.719.719,0,0,0-.1.007.784.784,0,0,0-.372.09.365.365,0,0,0-.184.263.3.3,0,0,0,.113.281.725.725,0,0,0,.367.143,1.379,1.379,0,0,0,.388-.006l-.292.527c-.052,0-.105-.014-.155-.019s-.1-.014-.148-.021a1.174,1.174,0,0,1-.679-.288.791.791,0,0,1-.195-.687c.06-.471.391-.713.982-.735.124,0,.3-.014.538-.039.2-.045.315-.132.329-.262.033-.256-.1-.4-.419-.445-.339-.046-.528.081-.565.375l-.641-.084a.777.777,0,0,1,.406-.61,1.1,1.1,0,0,1,.383-.131,1.741,1.741,0,0,1,.459,0,1.385,1.385,0,0,1,.711.286.747.747,0,0,1,.262.691l-.28,2.1ZM34.248,8.711c-.014-.087-.111-.181-.3-.283a.282.282,0,0,1-.149-.191c-.027-.166.062-.31.254-.444a1.267,1.267,0,0,1,.51-.2,2.025,2.025,0,0,1,.445-.01,1.118,1.118,0,0,1,.4.105l.081.566a.967.967,0,0,0-.763-.24.938.938,0,0,0-.246.063.1.1,0,0,0-.07.107c0,.03.068.075.2.135a.334.334,0,0,1,.209.249l.459,3.225.333-.048-.147.479-.7.1ZM16.212,11.99l.373-1.946c.066-.345-.045-.546-.325-.6a.38.38,0,0,0-.445.183.49.49,0,0,0-.063.172l-.6-.115a.8.8,0,0,1,.436-.594A1.132,1.132,0,0,1,16.339,9a1.08,1.08,0,0,1,.68.363.849.849,0,0,1,.151.735l-.385,2ZM36.255,11.9a.782.782,0,0,1-.4-.587c-.088-.466.148-.8.7-1.008.117-.04.281-.108.5-.2.18-.108.256-.227.23-.354-.045-.253-.23-.351-.538-.291-.339.064-.475.243-.423.533l-.632.121a.821.821,0,0,1,.016-.381.76.76,0,0,1,.181-.325,1.086,1.086,0,0,1,.319-.245,1.633,1.633,0,0,1,.436-.146,1.319,1.319,0,0,1,.764.05.742.742,0,0,1,.466.573l.394,2.085-.575.109-.274-1.454a.906.906,0,0,1-.219.154l-.066.038c-.033.014-.075.033-.124.051l-.054.023a.537.537,0,0,0-.094.036.792.792,0,0,0-.323.2.374.374,0,0,0-.092.307.306.306,0,0,0,.2.232.72.72,0,0,0,.4.021,1.549,1.549,0,0,0,.358-.127l-.107.592c-.054.009-.1.021-.154.027s-.1.023-.148.029a1.572,1.572,0,0,1-.3.032A.946.946,0,0,1,36.255,11.9Zm-23.134-.578a1.22,1.22,0,0,1-.814-.548.8.8,0,0,1-.063-.619l.051-.2a.64.64,0,0,1,.221-.332.558.558,0,0,1,.389-.1.726.726,0,0,1-.287-.256.51.51,0,0,1-.034-.381.653.653,0,0,1,.376-.449.876.876,0,0,1,.609-.04l.22.059.123.5-.337-.092c-.239-.062-.383,0-.428.177a.207.207,0,0,0,.081.244.629.629,0,0,0,.153.091.787.787,0,0,0,.178.059l.334.073-.125.459-.321-.086a.61.61,0,0,0-.385,0,.307.307,0,0,0-.2.221l-.046.169c-.081.308.06.513.419.611s.593-.009.673-.316l.522-1.94.56.152-.52,1.967a.816.816,0,0,1-.488.565,1.025,1.025,0,0,1-.4.076A1.79,1.79,0,0,1,13.121,11.325Zm25.893-.075a.787.787,0,0,1-.364-.506l-.052-.2a.585.585,0,0,1,.025-.4.536.536,0,0,1,.284-.283.724.724,0,0,1-.377-.078.5.5,0,0,1-.222-.31.662.662,0,0,1,.1-.578.9.9,0,0,1,.508-.34l.22-.06.359.372-.34.094c-.234.061-.332.182-.283.362a.216.216,0,0,0,.195.175.864.864,0,0,0,.177,0,.6.6,0,0,0,.178-.039l.332-.1.125.459-.327.086a.622.622,0,0,0-.332.194.3.3,0,0,0-.061.29l.046.17c.082.31.3.415.662.318s.51-.3.43-.611l-.525-1.94.569-.152.526,1.967a.8.8,0,0,1-.133.732,1.334,1.334,0,0,1-.747.44,1.763,1.763,0,0,1-.458.067A.987.987,0,0,1,39.014,11.251Zm4.916-.427-.376.168-.209-.469.91-.4.447,1-.536.235ZM10.823,10.6,11.5,8.78c.126-.343.06-.562-.2-.659a.643.643,0,0,0-.515.063.681.681,0,0,0-.376.364l-.617,1.666-.551-.2L10.1,7.684a.5.5,0,0,0-.051-.494l.618.23a.53.53,0,0,1,.049.19.658.658,0,0,1-.06.25l-.019.057a.838.838,0,0,1,.933-.2.888.888,0,0,1,.563.476.886.886,0,0,1-.038.647L11.37,10.8Zm31.123-.091a.78.78,0,0,1-.5-.513c-.167-.444.008-.817.521-1.11.106-.063.262-.155.452-.286.158-.137.212-.268.165-.388-.087-.243-.278-.305-.578-.195-.321.121-.429.318-.326.6l-.6.224a.831.831,0,0,1-.051-.376.747.747,0,0,1,.123-.352,1.092,1.092,0,0,1,.274-.294,1.558,1.558,0,0,1,.411-.219.832.832,0,0,1,.126-.042c.051-.012.1-.025.158-.033l.247-.048a.144.144,0,0,0,.117-.106.35.35,0,0,0-.027-.2l.6-.228a.414.414,0,0,1,0,.37.741.741,0,0,1-.256.283.744.744,0,0,1,.346.41L43.9,9.984l-.55.2-.514-1.383a.97.97,0,0,1-.191.187l-.061.047a.762.762,0,0,1-.111.073l-.049.031a.57.57,0,0,0-.083.052.861.861,0,0,0-.291.252.367.367,0,0,0-.033.32.3.3,0,0,0,.232.2.741.741,0,0,0,.388-.045,1.63,1.63,0,0,0,.339-.191l-.007.606c-.049.016-.1.038-.144.054s-.1.033-.143.052a1.408,1.408,0,0,1-.486.1A.865.865,0,0,1,41.946,10.506ZM7.5,9.21a1.29,1.29,0,0,1-.609-.561.906.906,0,0,1,.057-.809l.551.278A.581.581,0,0,0,7.44,8.5a.455.455,0,0,0,.265.3c.34.171.664-.049.984-.667s.3-1.014-.038-1.187a.447.447,0,0,0-.376-.047.593.593,0,0,0-.268.217l-.544-.28A.893.893,0,0,1,8.088,6.4a1.252,1.252,0,0,1,.773.147q1.024.53.346,1.862A1.819,1.819,0,0,1,8.43,9.3a.869.869,0,0,1-.347.071A1.276,1.276,0,0,1,7.5,9.21Zm11.223-.056.084-.763.581.059-.034.294,1.2.125-.05.47Zm26.136.17a.8.8,0,0,1-.593-.474.36.36,0,0,1-.05-.105l.563-.294.05.115a.376.376,0,0,0,.294.243.622.622,0,0,0,.412-.081q.466-.243.281-.6a.4.4,0,0,0-.3-.214A1.272,1.272,0,0,0,44.962,8a1.37,1.37,0,0,1-.658.078.647.647,0,0,1-.537-.347.728.728,0,0,1,0-.725,1.476,1.476,0,0,1,1.369-.675.811.811,0,0,1,.575.455l-.522.268a.4.4,0,0,0-.278-.224.563.563,0,0,0-.368.062.588.588,0,0,0-.252.235.3.3,0,0,0,0,.286.315.315,0,0,0,.309.153,2.03,2.03,0,0,0,.226-.033c.09-.024.2-.052.322-.088a1.334,1.334,0,0,1,.651-.062A.75.75,0,0,1,46.3,7.8q.427.817-.564,1.333a1.59,1.59,0,0,1-.72.207A.953.953,0,0,1,44.858,9.324Zm-6.675-1.3,1.361-.43-.112-.349.558-.177.256.8-1.917.607ZM5.434,7.97,6.578,6.351c.2-.289.183-.515-.05-.68a.385.385,0,0,0-.482-.016.45.45,0,0,0-.127.133l-.5-.349a.791.791,0,0,1,.64-.364,1.1,1.1,0,0,1,.718.219,1.055,1.055,0,0,1,.47.607.834.834,0,0,1-.159.737L5.918,8.307Zm41.547-.407-1.3-1.756.467-.349L47.368,7.1a.423.423,0,0,0,.67.091.761.761,0,0,0,.162-.169.669.669,0,0,0,.093-.211.592.592,0,0,0,.01-.223.522.522,0,0,0-.093-.206L47.035,4.8l.47-.349,1.433,1.932a1.112,1.112,0,0,0,.215.23c.041.019.078.037.118.051a.251.251,0,0,0,.123.024l-.54.4a.579.579,0,0,1-.262-.187.935.935,0,0,1-.221.548,1.118,1.118,0,0,1-.21.189,1.068,1.068,0,0,1-.617.251A.7.7,0,0,1,46.981,7.563ZM8.114,5.983,8.3,5.551l1.846.805-.189.434Zm-4.968.158L4.578,4.768c.091-.09.129-.153.1-.182l-.052-.014-.045.014-.027.007-2.193.725-.381-.394L3.762,3.211a.506.506,0,0,0,.166-.468l.455.476a.477.477,0,0,1-.035.19.576.576,0,0,1-.159.2l-.471.457a7.1,7.1,0,0,1-.568.453l-.09.073c-.036.022-.075.045-.117.073l.235-.1c.027-.011.057-.027.1-.045s.089-.042.138-.063l.064-.019L3.556,4.4l.675-.234a.638.638,0,0,1,.247-.042.552.552,0,0,1,.2.051l-.284-.3.327-.314.941.977-.326.313L5.1,4.615a.568.568,0,0,1,.045.3.451.451,0,0,1-.131.252l-1.457,1.4Zm46.3-2.373c-.266-.235-.492-.245-.686-.031a.383.383,0,0,0-.07.475.551.551,0,0,0,.118.143l-.407.454a.815.815,0,0,1-.286-.68,1.126,1.126,0,0,1,.3-.688,1.084,1.084,0,0,1,.662-.4.852.852,0,0,1,.711.248l1.519,1.364-.393.434ZM.753,3.125a1.119,1.119,0,0,1-.147-.5.866.866,0,0,1,.065-.352.348.348,0,0,1-.339.011L0,1.682A.573.573,0,0,0,.575,1.66L2.688.506l.28.514-1.735.945a.484.484,0,0,0-.159.151.665.665,0,0,0-.086.208.722.722,0,0,0,0,.232.6.6,0,0,0,.066.219.424.424,0,0,0,.649.2l1.8-.982.277.513L1.862,3.552a.858.858,0,0,1-.405.116C1.184,3.668.95,3.488.753,3.125Zm50.413.22a.714.714,0,0,1-.1-.062l.294-.563.11.065a.371.371,0,0,0,.379.034.6.6,0,0,0,.292-.3q.247-.463-.1-.65a.407.407,0,0,0-.372-.005,1.261,1.261,0,0,0-.41.379,1.385,1.385,0,0,1-.5.439.656.656,0,0,1-.639.016.722.722,0,0,1-.411-.6,1.264,1.264,0,0,1,.163-.731,1.318,1.318,0,0,1,.581-.6.815.815,0,0,1,.734.053l-.28.518a.4.4,0,0,0-.357-.029.536.536,0,0,0-.269.259.546.546,0,0,0-.07.337.3.3,0,0,0,.154.239.325.325,0,0,0,.344-.051,1.446,1.446,0,0,0,.163-.156c.064-.069.136-.153.22-.253a1.247,1.247,0,0,1,.5-.421.748.748,0,0,1,.65.055c.539.29.64.762.291,1.421a1.436,1.436,0,0,1-.615.655.741.741,0,0,1-.319.072A.938.938,0,0,1,51.166,3.346Zm-2.2-1.332L49.453.675,49.107.551l.2-.551L50.1.289l-.692,1.889Z" transform="translate(10.5 67.93)" fill="#fff"/>
      </g>
    </g>
  </g>
</svg>
