<svg xmlns="http://www.w3.org/2000/svg" xmlns:xlink="http://www.w3.org/1999/xlink" width="760.548" height="102.199" viewBox="0 0 760.548 102.199">
  <defs>
    <filter id="กลุ่มหลักสูตรศาสตร์และศิลป์ดิจิทัล" x="81.548" y="6.923" width="679" height="56" filterUnits="userSpaceOnUse">
      <feOffset dy="7" input="SourceAlpha"/>
      <feGaussianBlur stdDeviation="3.5" result="blur"/>
      <feFlood flood-opacity="0.161"/>
      <feComposite operator="in" in2="blur"/>
      <feComposite in="SourceGraphic"/>
    </filter>
    <filter id="มหาวิทยาลัยเทคโนโลยีสุรนารี" x="81.548" y="48.923" width="289" height="52" filterUnits="userSpaceOnUse">
      <feOffset dy="7" input="SourceAlpha"/>
      <feGaussianBlur stdDeviation="3.5" result="blur-2"/>
      <feFlood flood-opacity="0.161"/>
      <feComposite operator="in" in2="blur-2"/>
      <feComposite in="SourceGraphic"/>
    </filter>
    <filter id="Path_277" x="12.963" y="0" width="59.754" height="69.421" filterUnits="userSpaceOnUse">
      <feOffset dy="7" input="SourceAlpha"/>
      <feGaussianBlur stdDeviation="3.5" result="blur-3"/>
      <feFlood flood-opacity="0.161"/>
      <feComposite operator="in" in2="blur-3"/>
      <feComposite in="SourceGraphic"/>
    </filter>
    <filter id="Union_3" x="6.904" y="49.852" width="71.277" height="45.985" filterUnits="userSpaceOnUse">
      <feOffset dy="7" input="SourceAlpha"/>
      <feGaussianBlur stdDeviation="3.5" result="blur-4"/>
      <feFlood flood-opacity="0.161"/>
      <feComposite operator="in" in2="blur-4"/>
      <feComposite in="SourceGraphic"/>
    </filter>
    <filter id="Union_5" x="0" y="65.688" width="84.653" height="36.511" filterUnits="userSpaceOnUse">
      <feOffset dy="7" input="SourceAlpha"/>
      <feGaussianBlur stdDeviation="3.5" result="blur-5"/>
      <feFlood flood-opacity="0.161"/>
      <feComposite operator="in" in2="blur-5"/>
      <feComposite in="SourceGraphic"/>
    </filter>
  </defs>
  <g id="Group_173" data-name="Group 173" transform="translate(368.048 501.423)">
    <g transform="matrix(1, 0, 0, 1, -368.05, -501.42)" filter="url(#กลุ่มหลักสูตรศาสตร์และศิลป์ดิจิทัล)">
      <text id="กลุ่มหลักสูตรศาสตร์และศิลป์ดิจิทัล-2" data-name="กลุ่มหลักสูตรศาสตร์และศิลป์ดิจิทัล" transform="translate(92.05 38.42)" fill="#fff" font-size="36" font-family="SUTRegular, SUT"><tspan x="0" y="0">โครงการจัดรูปแบบการบริหารวิชาการด้านเทคโนโลยีดิจิทัลรูปใหม่</tspan></text>
    </g>
    <g transform="matrix(1, 0, 0, 1, -368.05, -501.42)" filter="url(#มหาวิทยาลัยเทคโนโลยีสุรนารี)">
      <text id="มหาวิทยาลัยเทคโนโลยีสุรนารี-2" data-name="มหาวิทยาลัยเทคโนโลยีสุรนารี" transform="translate(92.05 77.42)" fill="#fff" font-size="33" font-family="SUTLight, SUT"><tspan x="0" y="0">มหาวิทยาลัยเทคโนโลยีสุรนารี</tspan></text>
    </g>
    <g id="Group_172" data-name="Group 172" transform="translate(-1290.468 -416.92)">
      <g transform="matrix(1, 0, 0, 1, 922.42, -84.5)" filter="url(#Path_277)">
        <path id="Path_277-2" data-name="Path 277" d="M946.538-40.673l1.471-.01-1.176,3.219s1.441.13,1.463.093c2.133-5.854,3.889-12.369,3.889-12.369h1.255a22.774,22.774,0,0,1-.747,2.855l1.388.012a120.916,120.916,0,0,0,3.749-21.4,6.373,6.373,0,0,0,.864.034s-.129,1.747-.362,3.38c0,0,1.457.031,1.457,0,.64-5.552.678-10.1.678-10.1h.4a100.391,100.391,0,0,0,.724,10.1c.03.041,1.463,0,1.463,0-.212-1.639-.362-3.38-.362-3.38a6.672,6.672,0,0,0,.845-.042,124.031,124.031,0,0,0,3.917,21.359l1.433-.025a21.781,21.781,0,0,1-.807-2.845h1.287s1.788,6.492,3.961,12.326c.025.037,1.458-.1,1.458-.1L973.6-40.782h1.468l3.593,8.063,1.559-.046a81.386,81.386,0,0,1-5.9-14.337h-1.393l.935,2.737a9.325,9.325,0,0,1-1.4-.053c-1.835-5.324-3.33-12.036-3.33-12.036h-1.316l.69,2.97-1.22.042a122.639,122.639,0,0,1-2.611-17.781l-1.34-.012.121,1.835a7.7,7.7,0,0,1-.916.006C962.232-72.31,962.215-81,962.215-81l-1.4,0,.01,3.23h-.362L960.452-81h-1.4s.075,8.69-.208,11.61a7.873,7.873,0,0,1-.946,0l.133-1.833-1.368.024a118.908,118.908,0,0,1-2.455,17.812l-1.207-.03.669-2.981-1.34.007S950.9-49.657,949.1-44.32a9.436,9.436,0,0,1-1.383.058l.9-2.743L947.233-47A84.749,84.749,0,0,1,941.47-32.61l1.549.028Zm27.7-2.427.334,1.039-1.314-.046-.308-.992Zm-5.483-9.071.3,1.04-1.32-.046-.279-.99Zm-15.972.06h1.258l-.282.99-1.3.063ZM947.323-43,948.65-43l-.3,1L947-41.947Z" transform="translate(-918.01 84.5)" fill="#fff"/>
      </g>
      <path id="Union_4" data-name="Union 4" d="M0,30.263c-.012-5.037.129-4,.129-4H2.293s-.007-1.48-.011-1.954.072-.724.845-.724c.75-.006,5.673-.024,5.673-.024h0c0-.807-.011-1.973-.013-2.371,0-.625,1.107-2.743,2.836-2.743,0,0,.279-4,.346-4.566s-.141-1.738-.141-2.581a7.7,7.7,0,0,1,.68-2.443,13.862,13.862,0,0,0,.142-3.16,2.059,2.059,0,0,1,.748-1.76c.368-.142.922-.494.919-.845s-.636-.483-.637-1.465S13.947.011,14.8,0c.816,0,1.114,1.065,1.114,1.544s-.206,1.063-.206,1.318c0,.3.639.42,1.342.42a1.124,1.124,0,0,1,1.264.933c.076.544.425.62.712,1.1a1.853,1.853,0,0,1-.276,1.8,10.526,10.526,0,0,0-.447,3.843c-.025,1.019.036,1.016-.811,1.015h-.185c-.22,0-.562,0-.558.549,0,.591.072,5.7.072,5.7l1.431.2c1.718-.01,2.852,2.1,2.857,2.723v2.375h0s4.894-.023,5.673-.023.838.228.838.706.006,1.947.006,1.947l2.167-.006s.136-1.027.156,4.008-6.257,7.3-7.518,7.3-6.873.03-6.873.03V36.3s5.829-.019,6.87-.025,6.269-2.448,6.258-6.309c-.006-1.448-.01-2.165-.013-2.479h-1.02s0,1.055.012,2.153c0,1.136-1.931,5.483-6.081,5.493l-6.09.033a1.944,1.944,0,0,1,.336-1.4c.045-.039-.04-1.9-.011-3.017a8.916,8.916,0,0,1,3.492-6.383l.047-.023h-.047l-.018-3.416-8.678.034.01,3.412h-.045l.047.022a8.908,8.908,0,0,1,3.51,6.36c.06,1.107-.012,2.981.017,3.017a1.893,1.893,0,0,1,.355,1.39s-1.949.01-6.094.023c-4.122.018-6.1-4.3-6.111-5.451,0-1.1-.006-2.145-.006-2.145H1.293v2.48c.024,3.865,5.247,6.262,6.321,6.262,1.026,0,6.847-.023,6.847-.023v1.177s-5.6.019-6.841.031C6.332,37.513.024,35.3,0,30.263Zm4.707,1.855s.555,1.891,4.006,1.966c.827,0,3.762-.016,3.762-.016l-1.966-2.007Zm12.819,1.931s2.928,0,3.794-.018c3.409-.1,3.983-2,3.983-2l-5.814-.017ZM8.887,28.98l4.164,4.1s-.01-2.886-.01-2.944c-.886-4.9-4.168-5.234-4.168-5.234Zm8.068,1.149c-.033.047.006,2.932.006,2.932l4.122-4.126-.025-4.084s-3.279.363-4.1,5.275Zm-13.532-1.2s.006.406.01.954a1.026,1.026,0,0,0,.9,1.068c.5-.007,4.908-.023,4.908-.023L7.219,28.906Zm19.312-.078-2.011,2.031,4.918-.021a1.038,1.038,0,0,0,.9-1.063v-.956ZM3.3,27.236a.758.758,0,0,0,.82.845l2.182-.01L3.409,25.144S3.3,26.816,3.3,27.236ZM23.657,28s1.553-.006,2.187-.014a.781.781,0,0,0,.834-.845c0-.419-.141-2.088-.141-2.088Zm-15.9-.158-.011-3.162-3.489-.041Zm14.421-3.221.01,3.161,3.506-3.229ZM12.133,19.406a.241.241,0,0,0,.218.225l5.673-.019a.251.251,0,0,0,.235-.228.233.233,0,0,0-.241-.2l-5.666.025h0a.214.214,0,0,0-.22.2Zm.694-5.108c-.351.072-.345,1.067-.426,1.328-.058.3.01,2.043-.048,2.741l.826-.059a6.145,6.145,0,0,0-.146-1.841c-.191-.818.109-2.173-.179-2.173Zm.2,11.829-.017-4.2,1.749,3.907L14.7,30.46c-.438-3.342-1.68-4.328-1.68-4.328Zm2.161-.3,1.734-3.92.014,4.208s-1.264.993-1.649,4.345Z" transform="translate(949.551 -55.94)" fill="#fff"/>
      <g transform="matrix(1, 0, 0, 1, 922.42, -84.5)" filter="url(#Union_3)">
        <path id="Union_3-2" data-name="Union 3" d="M25.5,16.35l1.7-1.877,2.507,1.972.256,8.194-2.109-1.465-2.32,1.81Zm-3,6.847-2.081,1.477.2-8.189,2.49-2,1.69,1.867.033,8.63Zm-4.7-.311-2,1.29.6-7.966,2.305-1.81,1.261,2.088-.156,7.973Zm12.553-6.442,1.263-2.1,2.3,1.791.666,7.972L32.6,22.827l-2,1.585ZM13.5,22.077l-2.1.325,1.439-6.938,2.3-1.366.752,1.981L15.3,23.855ZM34.429,16l.752-1.983,2.313,1.346,1.5,6.926-2.1-.309-1.789,1.789ZM9.371,20.846,7.6,20.852l2.173-6.223L12.3,13.352l.013,2.025-1.43,6.711Zm28.656-5.58V13.252l2.535,1.258,2.209,6.2-1.763.007-1.5,1.248Zm-31.7,3.7-1.59-.216,3.37-6,1.971-.523.214.933-.82,1.165L7.272,20.1ZM40.857,14.2,40,13.043l.2-.937,2.024.5,3.368,5.979-1.579.229-.947,1.144ZM4.006,16.326,2.113,15.6,6.5,10.659l2.1-.012L4.949,17.171Zm37.658-5.8,2.117-.011,4.447,4.9-1.883.75-.966.845ZM2,13.3.646,12.782,5.552,8.57l1.8.4L2.63,14.15ZM42.938,8.826l1.785-.416,4.96,4.175-1.369.537-.635.845ZM0,9.549,5.213,6.663,6.491,7.4,5.34,7.929l-4.093,3.38ZM44.906,7.771,43.762,7.26,45.021,6.5l5.256,2.847-1.248,1.772ZM.273,6.057,5.02,4.567l1.256.947-1.161.3L1.042,7.855Zm44.849-.4L43.961,5.36,45.228,4.4l4.721,1.448-.736,1.468.012.336ZM1.207,3.112l4.1-.73L6.276,3.72l-1.382-.2L1.756,4.693Zm44.11.249-1.369.2.933-1.34,4.1.7L48.479,4.5ZM5.942,1.734l-2.509.121.2-1.47L5.938.156,6.995,2.368ZM44.266,0,46.59.214,46.8,1.681l-2.518-.106-1.071.654Z" transform="translate(17.4 53.35)" fill="#fff"/>
      </g>
      <g transform="matrix(1, 0, 0, 1, 922.42, -84.5)" filter="url(#Union_5)">
        <path id="Union_5-2" data-name="Union 5" d="M31.638,15.5l.029-2.336c.007-.443-.159-.666-.49-.671a.785.785,0,0,0-.566.285.822.822,0,0,0-.28.562l-.024,2.146-.709-.01.042-2.992a.6.6,0,0,0-.258-.541l.793,0a.623.623,0,0,1,.136.2.983.983,0,0,1,.033.309v.069a1.009,1.009,0,0,1,.976-.6.933.933,0,0,1,1.056,1.063l-.029,2.526Zm1.334-2.465a.966.966,0,0,1,.349-.818,1.609,1.609,0,0,1,1-.323,1.69,1.69,0,0,1,.966.233.966.966,0,0,1,.461.834l.066,2.472-.7.018-.071-2.444c-.008-.389-.241-.578-.707-.565s-.672.214-.659.6l.016.537a1.049,1.049,0,0,1,.179-.222.374.374,0,0,1,.27-.088h.52l.017.583h-.559a.377.377,0,0,0-.281.162.473.473,0,0,0-.13.316l.036,1.159-.707.019ZM27.929,15.4l.157-3.527.7.033-.129,2.98.4.019-.278.535Zm8.548-4.428c0-.106-.113-.225-.333-.362a.35.35,0,0,1-.165-.241.564.564,0,0,1,.346-.507,1.44,1.44,0,0,1,.637-.189A2.349,2.349,0,0,1,37.5,9.7a1.376,1.376,0,0,1,.472.164l.046.689a1.167,1.167,0,0,0-.9-.362.957.957,0,0,0-.3.054.121.121,0,0,0-.1.121c0,.036.072.094.22.182a.407.407,0,0,1,.233.315l.241,3.925.41-.028-.223.562-.855.052ZM25.709,15.3a1.493,1.493,0,0,1-1.086-.476.966.966,0,0,1-.211-.724l.023-.241a.724.724,0,0,1,.192-.439.637.637,0,0,1,.435-.206.836.836,0,0,1-.4-.241.572.572,0,0,1-.121-.439.8.8,0,0,1,.348-.618,1.074,1.074,0,0,1,.724-.176l.267.018.258.571-.42-.035c-.295-.023-.447.076-.468.3a.261.261,0,0,0,.147.28.834.834,0,0,0,.2.072,1.01,1.01,0,0,0,.223.031l.418.014-.049.571-.4-.031a.724.724,0,0,0-.454.083.369.369,0,0,0-.187.307l-.013.209c-.031.389.18.6.628.635s.706-.14.734-.523l.191-2.414.706.056L27.2,14.325a1,1,0,0,1-.454.777,1.5,1.5,0,0,1-.821.206Zm12.486-.9-.261-2.623.7-.074.241,2.465a.512.512,0,0,0,.637.512.811.811,0,0,0,.268-.077.766.766,0,0,0,.231-.157.585.585,0,0,0,.142-.228.546.546,0,0,0,.037-.267l-.235-2.374.706-.065.281,2.884a1.464,1.464,0,0,0,.081.375c.033.043.062.091.093.128a.373.373,0,0,0,.112.1l-.81.078a.688.688,0,0,1-.148-.356,1.159,1.159,0,0,1-.572.427,1.44,1.44,0,0,1-.34.069,2.161,2.161,0,0,1-.216.011.845.845,0,0,1-.955-.829Zm-15.23.6.234-1.768a1.168,1.168,0,0,1-.307.1l-.091.012a1.593,1.593,0,0,1-.161.013h-.074a.868.868,0,0,0-.121.008.946.946,0,0,0-.449.109.441.441,0,0,0-.222.317.362.362,0,0,0,.136.339.875.875,0,0,0,.443.173,1.665,1.665,0,0,0,.468-.007l-.352.636c-.063,0-.127-.017-.187-.023s-.121-.017-.179-.025a1.417,1.417,0,0,1-.82-.348.955.955,0,0,1-.235-.829c.072-.568.472-.861,1.185-.887.15,0,.362-.017.649-.047.241-.054.38-.159.4-.316.04-.309-.121-.483-.506-.537-.409-.056-.637.1-.682.453l-.774-.1a.938.938,0,0,1,.49-.736,1.328,1.328,0,0,1,.462-.158,2.1,2.1,0,0,1,.554,0,1.672,1.672,0,0,1,.858.345.9.9,0,0,1,.316.834l-.338,2.535Zm18.372-4.48c-.017-.105-.134-.218-.362-.342a.34.34,0,0,1-.18-.231c-.033-.2.075-.374.307-.536a1.529,1.529,0,0,1,.616-.241,2.444,2.444,0,0,1,.537-.012,1.349,1.349,0,0,1,.483.127l.1.683a1.167,1.167,0,0,0-.921-.29,1.132,1.132,0,0,0-.3.076.121.121,0,0,0-.084.129c0,.036.082.091.241.163a.4.4,0,0,1,.252.3l.554,3.893.4-.058-.177.578-.845.121ZM19.568,14.472l.45-2.349c.08-.416-.054-.659-.392-.724a.459.459,0,0,0-.537.221.591.591,0,0,0-.076.208l-.724-.139a.966.966,0,0,1,.526-.717,1.366,1.366,0,0,1,.906-.109,1.3,1.3,0,0,1,.821.438,1.025,1.025,0,0,1,.182.887L20.259,14.6Zm24.192-.109a.944.944,0,0,1-.483-.709c-.106-.562.179-.966.845-1.217.141-.048.339-.13.6-.241.217-.13.309-.274.278-.427-.054-.305-.278-.424-.649-.351-.409.077-.573.293-.511.643l-.763.146a.991.991,0,0,1,.019-.46.917.917,0,0,1,.218-.392,1.311,1.311,0,0,1,.385-.3,1.971,1.971,0,0,1,.526-.176,1.592,1.592,0,0,1,.922.06.9.9,0,0,1,.562.692l.476,2.517-.694.132-.331-1.755a1.093,1.093,0,0,1-.264.186l-.08.046c-.04.017-.091.04-.15.062l-.065.028a.648.648,0,0,0-.113.043.956.956,0,0,0-.39.241.451.451,0,0,0-.111.371.369.369,0,0,0,.241.28.869.869,0,0,0,.483.025,1.87,1.87,0,0,0,.432-.153l-.129.715c-.065.011-.121.025-.186.033s-.121.028-.179.035a1.9,1.9,0,0,1-.362.039,1.142,1.142,0,0,1-.532-.115Zm-27.923-.7A1.473,1.473,0,0,1,14.854,13a.966.966,0,0,1-.076-.747l.062-.241a.772.772,0,0,1,.267-.4.674.674,0,0,1,.47-.121.876.876,0,0,1-.346-.309.616.616,0,0,1-.041-.46.788.788,0,0,1,.454-.542,1.057,1.057,0,0,1,.735-.048l.266.071.148.6-.407-.111c-.288-.075-.462,0-.517.214a.25.25,0,0,0,.1.295.759.759,0,0,0,.185.11.95.95,0,0,0,.215.071l.4.088-.151.554-.387-.1a.736.736,0,0,0-.465,0,.371.371,0,0,0-.241.267l-.056.2c-.1.372.072.619.506.737s.716-.011.812-.381l.63-2.342.676.183-.628,2.374a.985.985,0,0,1-.589.682,1.237,1.237,0,0,1-.483.092,2.16,2.16,0,0,1-.556-.074Zm31.253-.091a.95.95,0,0,1-.439-.611l-.063-.241a.706.706,0,0,1,.03-.483.647.647,0,0,1,.343-.342.874.874,0,0,1-.455-.094.6.6,0,0,1-.268-.374.8.8,0,0,1,.121-.7,1.086,1.086,0,0,1,.613-.41l.266-.072.433.449-.41.113c-.282.074-.4.22-.342.437a.261.261,0,0,0,.235.211,1.043,1.043,0,0,0,.214,0,.724.724,0,0,0,.215-.047l.4-.121.151.554-.395.1a.751.751,0,0,0-.4.234.362.362,0,0,0-.074.35l.056.205c.1.374.362.5.8.384s.616-.362.519-.737L48,10.045l.687-.183.635,2.374a.966.966,0,0,1-.161.884,1.61,1.61,0,0,1-.9.531,2.128,2.128,0,0,1-.553.081,1.191,1.191,0,0,1-.622-.151Zm5.934-.515-.454.2-.252-.566,1.1-.483.54,1.207-.647.284Zm-39.96-.266.817-2.2q.228-.621-.241-.8a.776.776,0,0,0-.622.076.822.822,0,0,0-.454.439l-.745,2.011-.665-.241,1.037-2.812a.6.6,0,0,0-.062-.6l.746.278a.64.64,0,0,1,.059.229.794.794,0,0,1-.072.3l-.023.069a1.011,1.011,0,0,1,1.126-.241,1.072,1.072,0,0,1,.68.575,1.069,1.069,0,0,1-.046.781l-.875,2.366Zm37.565-.11a.941.941,0,0,1-.6-.619c-.2-.536.01-.986.629-1.34.128-.076.316-.187.546-.345.191-.165.256-.323.2-.468-.105-.293-.336-.368-.7-.235-.387.146-.518.384-.393.724l-.724.27a1,1,0,0,1-.062-.454.9.9,0,0,1,.148-.425A1.318,1.318,0,0,1,50,9.437a1.88,1.88,0,0,1,.5-.264,1,1,0,0,1,.152-.051c.062-.014.121-.03.191-.04l.3-.058a.174.174,0,0,0,.141-.128.422.422,0,0,0-.033-.241l.724-.275a.5.5,0,0,1,0,.447.894.894,0,0,1-.309.342.9.9,0,0,1,.418.495l.908,2.387-.664.241-.62-1.669a1.171,1.171,0,0,1-.231.226l-.074.057a.92.92,0,0,1-.134.088l-.059.037a.688.688,0,0,0-.1.063,1.039,1.039,0,0,0-.351.3.443.443,0,0,0-.04.386.362.362,0,0,0,.28.241.894.894,0,0,0,.468-.054,1.967,1.967,0,0,0,.409-.231l-.008.731c-.059.019-.121.046-.174.065s-.121.04-.173.063a1.7,1.7,0,0,1-.587.121,1.044,1.044,0,0,1-.3-.04ZM9.052,11.116a1.557,1.557,0,0,1-.735-.677,1.094,1.094,0,0,1,.069-.976l.665.336a.7.7,0,0,0-.071.461.549.549,0,0,0,.32.362c.41.206.8-.059,1.188-.805s.362-1.224-.046-1.433a.54.54,0,0,0-.454-.057.716.716,0,0,0-.323.262l-.657-.338a1.078,1.078,0,0,1,.754-.526A1.511,1.511,0,0,1,10.7,7.9q1.236.64.418,2.247a2.2,2.2,0,0,1-.938,1.075,1.049,1.049,0,0,1-.419.086,1.54,1.54,0,0,1-.7-.194ZM22.6,11.049l.1-.921.7.071-.041.355,1.448.151-.06.567Zm31.546.205a.966.966,0,0,1-.716-.572.435.435,0,0,1-.06-.127l.68-.355.06.139a.454.454,0,0,0,.355.293.751.751,0,0,0,.5-.1q.562-.293.339-.724a.483.483,0,0,0-.362-.258,1.535,1.535,0,0,0-.669.1,1.654,1.654,0,0,1-.794.094.781.781,0,0,1-.648-.419.879.879,0,0,1,0-.875,1.782,1.782,0,0,1,1.652-.815.979.979,0,0,1,.694.549l-.63.323a.483.483,0,0,0-.336-.27.68.68,0,0,0-.444.075.71.71,0,0,0-.3.284.362.362,0,0,0,0,.345.38.38,0,0,0,.373.185,2.45,2.45,0,0,0,.273-.04c.109-.029.241-.063.389-.106a1.61,1.61,0,0,1,.786-.075.905.905,0,0,1,.6.5q.515.986-.681,1.609a1.919,1.919,0,0,1-.869.25,1.15,1.15,0,0,1-.191-.019ZM46.088,9.685l1.643-.519L47.6,8.745l.674-.214.309.966-2.314.733ZM6.559,9.62,7.94,7.666q.362-.523-.06-.821A.465.465,0,0,0,7.3,6.826a.543.543,0,0,0-.153.161l-.6-.421a.955.955,0,0,1,.772-.439,1.328,1.328,0,0,1,.867.264,1.273,1.273,0,0,1,.567.733,1.007,1.007,0,0,1-.192.89L7.143,10.026Zm50.147-.491L55.137,7.009l.564-.421L57.173,8.57a.511.511,0,0,0,.809.11.919.919,0,0,0,.2-.2.807.807,0,0,0,.112-.255.715.715,0,0,0,.012-.269.63.63,0,0,0-.112-.249L56.771,5.794l.567-.421L59.068,7.7a1.342,1.342,0,0,0,.26.278c.049.023.094.045.142.062a.3.3,0,0,0,.148.029l-.652.483a.7.7,0,0,1-.316-.226,1.129,1.129,0,0,1-.267.661,1.35,1.35,0,0,1-.253.228,1.289,1.289,0,0,1-.745.3.845.845,0,0,1-.68-.393ZM9.794,7.221l.225-.521,2.228.972-.228.524Zm-6,.191L5.526,5.755c.11-.109.156-.185.121-.22l-.063-.017-.054.017L5.5,5.544,2.85,6.419l-.46-.476L4.541,3.876a.611.611,0,0,0,.2-.565l.549.575a.576.576,0,0,1-.042.229.7.7,0,0,1-.192.241l-.568.552a8.569,8.569,0,0,1-.686.547l-.109.088c-.043.027-.091.054-.141.088l.284-.121c.033-.013.069-.033.121-.054s.107-.051.167-.076L4.2,5.357l.092-.046.815-.282a.77.77,0,0,1,.3-.051.666.666,0,0,1,.241.062L5.3,4.677,5.7,4.3,6.834,5.477l-.393.378L6.156,5.57a.686.686,0,0,1,.054.362.544.544,0,0,1-.158.3L4.293,7.926ZM59.681,4.548c-.321-.284-.594-.3-.828-.037a.462.462,0,0,0-.084.573.665.665,0,0,0,.142.173L58.42,5.8a.984.984,0,0,1-.345-.821,1.359,1.359,0,0,1,.362-.83,1.308,1.308,0,0,1,.8-.483,1.028,1.028,0,0,1,.858.3l1.833,1.646-.474.524ZM.909,3.772a1.351,1.351,0,0,1-.177-.6A1.045,1.045,0,0,1,.81,2.743.42.42,0,0,1,.4,2.757L0,2.03A.692.692,0,0,0,.694,2L3.244.611l.338.62L1.488,2.372a.584.584,0,0,0-.192.182.8.8,0,0,0-.1.251.871.871,0,0,0,0,.28.724.724,0,0,0,.08.264.512.512,0,0,0,.783.241L4.228,2.406l.334.619L2.247,4.287a1.036,1.036,0,0,1-.489.14C1.429,4.427,1.147,4.21.909,3.772Zm60.848.266a.862.862,0,0,1-.121-.075l.355-.68.133.078a.448.448,0,0,0,.457.041.724.724,0,0,0,.352-.362q.3-.559-.121-.785a.491.491,0,0,0-.449-.006,1.522,1.522,0,0,0-.495.457,1.672,1.672,0,0,1-.6.53.792.792,0,0,1-.771.019.871.871,0,0,1-.5-.724,1.526,1.526,0,0,1,.2-.882,1.591,1.591,0,0,1,.7-.724.984.984,0,0,1,.886.064l-.338.625a.483.483,0,0,0-.431-.035.647.647,0,0,0-.325.313A.659.659,0,0,0,60.6,2.3a.362.362,0,0,0,.186.288.392.392,0,0,0,.415-.062,1.745,1.745,0,0,0,.2-.188c.077-.083.164-.185.266-.305a1.505,1.505,0,0,1,.6-.508.9.9,0,0,1,.785.066c.651.35.772.92.351,1.715a1.733,1.733,0,0,1-.742.791.894.894,0,0,1-.385.087,1.132,1.132,0,0,1-.523-.145ZM59.1,2.43,59.689.815l-.418-.15L59.513,0l.957.349-.835,2.28Z" transform="translate(10.5 69.19)" fill="#fff"/>
      </g>
    </g>
  </g>
</svg>
