<svg xmlns="http://www.w3.org/2000/svg" width="131.834" height="167.313" viewBox="0 0 131.834 167.313">
  <path id="Path_259" data-name="Path 259" d="M50.325,188.044c0,32.445-33.646,74.189-52.862,95.383a18.259,18.259,0,0,1-26.686.43c-19.305-20.026-52.287-59.546-52.287-95.813a65.917,65.917,0,0,1,65.919-65.916A65.917,65.917,0,0,1,50.325,188.044Zm-52.109-.015a13.813,13.813,0,0,0-4.042-9.756,14.46,14.46,0,0,0-4.419-2.945,13.866,13.866,0,0,0-15.082,2.945,13.784,13.784,0,0,0-4.051,9.756,13.268,13.268,0,0,0,1.1,5.338,11.544,11.544,0,0,0,2.948,4.41,13.77,13.77,0,0,0,9.747,4.051,13.814,13.814,0,0,0,5.335-1.106,14.46,14.46,0,0,0,4.419-2.945,14.3,14.3,0,0,0,2.939-4.41A13.268,13.268,0,0,0-1.784,188.029Z" transform="translate(81.51 -122.128)" fill="#fff"/>
</svg>
