<svg xmlns="http://www.w3.org/2000/svg" width="47.178" height="32.792" viewBox="0 0 47.178 32.792">
  <g id="Group_36" data-name="Group 36" transform="translate(-69.927 -407.803)">
    <path id="Path_40" data-name="Path 40" d="M117.1,438.583V409.955l-16.09,14.024Z"/>
    <path id="Path_41" data-name="Path 41" d="M69.937,409.369c0,.017-.01.031-.01.048v28.957L86,423.787Z"/>
    <path id="Path_42" data-name="Path 42" d="M96.453,424.518,115.6,407.826c-.039,0-.073-.023-.113-.023H72.071l18.571,16.672A4.392,4.392,0,0,0,96.453,424.518Z"/>
    <path id="Path_43" data-name="Path 43" d="M98.156,426.471a6.987,6.987,0,0,1-9.245-.068l-.976-.877L71.371,440.561a1.635,1.635,0,0,0,.169.034h43.928l-16.419-14.9Z"/>
  </g>
</svg>
